<svg width="28" height="28" viewBox="0 0 28 28" fill="none" xmlns="http://www.w3.org/2000/svg">
<g clip-path="url(#clip0_16212_42436)">
<mask id="mask0_16212_42436" style="mask-type:luminance" maskUnits="userSpaceOnUse" x="0" y="0" width="28" height="28">
<path d="M28 0H0V28H28V0Z" fill="white"/>
</mask>
<g mask="url(#mask0_16212_42436)">
<path d="M0 14C0 6.268 6.268 0 14 0C21.732 0 28 6.268 28 14C28 21.732 21.732 28 14 28C6.268 28 0 21.732 0 14Z" fill="url(#paint0_linear_16212_42436)"/>
<path fill-rule="evenodd" clip-rule="evenodd" d="M14 9.23562C12.4067 8.33592 10.7687 7.97306 8.58467 8.00217L8.482 8.00341C7.964 8.0096 7.5 8.01455 7.07467 8.22075C6.70663 8.40429 6.40688 8.68681 6.21467 9.03129C6.09067 9.25853 6.042 9.4895 6.02 9.7248C6 9.94214 6 10.2041 6 10.5007V16.9763C6 17.3311 6 17.6314 6.02 17.8748C6.04 18.1262 6.08533 18.38 6.21467 18.6178C6.39782 18.9687 6.70029 19.2538 7.07533 19.429C7.33733 19.5553 7.62933 19.5986 7.91467 19.6197C8.19867 19.6414 8.556 19.6457 8.988 19.6507L9.01133 19.6513C10.918 19.6748 12.2693 20.0538 13.63 20.8959C13.7396 20.9638 13.8683 21 14 21C14.1317 21 14.2604 20.9638 14.37 20.8959C15.7307 20.0538 17.082 19.6748 18.9887 19.6513H19.012C19.444 19.6457 19.8013 19.6414 20.0853 19.6203C20.3707 19.5986 20.6627 19.5553 20.9247 19.4284C21.314 19.2401 21.5873 18.9825 21.7853 18.6178C21.9147 18.38 21.96 18.1262 21.98 17.8748C22 17.6314 22 17.3311 22 16.9769V10.5C22 10.2028 22 9.94276 21.98 9.72418C21.958 9.48888 21.9093 9.25792 21.786 9.03067C21.5938 8.68619 21.294 8.40367 20.926 8.22013C20.5 8.01393 20.036 8.00836 19.518 8.00279L19.4153 8.00155C17.232 7.97306 15.5933 8.33592 14 9.23562ZM13.3333 10.3087C11.978 9.53656 10.5887 9.21395 8.60333 9.23996C7.92267 9.24925 7.80067 9.26597 7.69133 9.3186C7.57063 9.38211 7.47137 9.47559 7.40467 9.58857C7.38533 9.62387 7.36267 9.68331 7.34867 9.8313C7.334 9.98982 7.33333 10.1966 7.33333 10.5248V16.954C7.33333 17.3379 7.33333 17.5912 7.34933 17.7825C7.36467 17.9708 7.39133 18.0358 7.40467 18.0612C7.46224 18.1802 7.56399 18.276 7.69133 18.3311C7.71133 18.3404 7.786 18.3683 8.02333 18.3869C8.256 18.4042 8.568 18.4079 9.02933 18.4141C10.7047 18.4345 12.056 18.7082 13.3333 19.3039V10.3087ZM14.6667 19.3039C15.944 18.7082 17.2953 18.4345 18.9707 18.4135C19.432 18.4079 19.744 18.4042 19.9773 18.3862C20.214 18.3683 20.2887 18.3404 20.308 18.3305C20.4353 18.2754 20.5371 18.1796 20.5947 18.0605C20.6087 18.0358 20.6353 17.9708 20.6507 17.7819C20.666 17.5912 20.6667 17.3379 20.6667 16.954V10.5242C20.6667 10.1966 20.6667 9.98982 20.6513 9.8313C20.638 9.68331 20.6147 9.62387 20.5953 9.58857C20.5286 9.47559 20.4294 9.38211 20.3087 9.3186C20.1993 9.26597 20.0773 9.24925 19.3967 9.23996C17.4113 9.21395 16.022 9.53718 14.6667 10.3087V19.3039Z" fill="white"/>
</g>
</g>
<defs>
<linearGradient id="paint0_linear_16212_42436" x1="-14" y1="14" x2="14" y2="42" gradientUnits="userSpaceOnUse">
<stop stop-color="#226DFE"/>
<stop offset="1" stop-color="#226DFE"/>
</linearGradient>
<clipPath id="clip0_16212_42436">
<rect width="28" height="28" fill="white"/>
</clipPath>
</defs>
</svg>
