<svg width="28" height="28" viewBox="0 0 28 28" fill="none" xmlns="http://www.w3.org/2000/svg">
<g clip-path="url(#clip0_1731_46008)">
<mask id="mask0_1731_46008" style="mask-type:luminance" maskUnits="userSpaceOnUse" x="0" y="0" width="28" height="28">
<path d="M28 0H0V28H28V0Z" fill="white"/>
</mask>
<g mask="url(#mask0_1731_46008)">
<path d="M0 14C0 6.268 6.268 0 14 0C21.732 0 28 6.268 28 14C28 21.732 21.732 28 14 28C6.268 28 0 21.732 0 14Z" fill="url(#paint0_linear_1731_46008)"/>
<path d="M13.25 18.5C12.8358 18.5 12.5 18.8358 12.5 19.25C12.5 19.6642 12.8358 20 13.25 20H14.75C15.1642 20 15.5 19.6642 15.5 19.25C15.5 18.8358 15.1642 18.5 14.75 18.5H13.25Z" fill="white"/>
<path fill-rule="evenodd" clip-rule="evenodd" d="M8 9.8C8 8.11984 8 7.27977 8.32698 6.63803C8.6146 6.07354 9.07354 5.6146 9.63803 5.32698C10.2798 5 11.1198 5 12.8 5H15.2C16.8802 5 17.7202 5 18.362 5.32698C18.9264 5.6146 19.3854 6.07354 19.673 6.63803C20 7.27977 20 8.11984 20 9.8V18.2C20 19.8802 20 20.7202 19.673 21.362C19.3854 21.9264 18.9264 22.3854 18.362 22.673C17.7202 23 16.8802 23 15.2 23H12.8C11.1198 23 10.2798 23 9.63803 22.673C9.07354 22.3854 8.6146 21.9264 8.32698 21.362C8 20.7202 8 19.8802 8 18.2V9.8ZM12.8 6.5H15.2C16.0648 6.5 16.6233 6.50117 17.0482 6.53589C17.4558 6.56919 17.6068 6.6257 17.681 6.66349C17.9632 6.8073 18.1927 7.03677 18.3365 7.31902C18.3743 7.39318 18.4309 7.54426 18.4641 7.95175C18.4988 8.37676 18.5 8.93517 18.5 9.8V18.2C18.5 19.0648 18.4988 19.6233 18.4641 20.0482C18.4309 20.4558 18.3743 20.6068 18.3365 20.681C18.1927 20.9632 17.9632 21.1927 17.681 21.3365C17.6068 21.3743 17.4558 21.4309 17.0482 21.4641C16.6233 21.4988 16.0648 21.5 15.2 21.5H12.8C11.9352 21.5 11.3767 21.4988 10.9518 21.4641C10.5443 21.4309 10.3932 21.3743 10.319 21.3365C10.0368 21.1927 9.8073 20.9632 9.66349 20.681C9.6257 20.6068 9.56919 20.4558 9.53589 20.0482C9.50117 19.6233 9.5 19.0648 9.5 18.2V9.8C9.5 8.93517 9.50117 8.37676 9.53589 7.95175C9.56919 7.54426 9.6257 7.39318 9.66349 7.31902C9.8073 7.03677 10.0368 6.8073 10.319 6.66349C10.3932 6.6257 10.5443 6.56919 10.9518 6.53589C11.3767 6.50117 11.9352 6.5 12.8 6.5Z" fill="white"/>
</g>
</g>
<defs>
<linearGradient id="paint0_linear_1731_46008" x1="-14" y1="14" x2="14" y2="42" gradientUnits="userSpaceOnUse">
<stop stop-color="#226DFE"/>
<stop offset="1" stop-color="#226DFE"/>
</linearGradient>
<clipPath id="clip0_1731_46008">
<rect width="28" height="28" fill="white"/>
</clipPath>
</defs>
</svg>
