<svg width="28" height="28" viewBox="0 0 28 28" fill="none" xmlns="http://www.w3.org/2000/svg">
<g clip-path="url(#clip0_11812_4095)">
<path d="M0 14C0 6.268 6.268 0 14 0C21.732 0 28 6.268 28 14C28 21.732 21.732 28 14 28C6.268 28 0 21.732 0 14Z" fill="url(#paint0_linear_11812_4095)"/>
<path d="M14 15C16.25 15 18.5 15.9 18.5 17.846V17.98C18.5 18.275 18.46 18.427 18.387 18.565C18.3144 18.7022 18.2022 18.8144 18.065 18.887C17.927 18.96 17.775 19 17.48 19H10.52C10.225 19 10.073 18.96 9.935 18.887C9.79814 18.8143 9.6863 18.7021 9.614 18.565C9.539 18.427 9.5 18.275 9.5 17.98V17.846C9.5 15.9 11.75 15 14 15ZM14 9C14.5967 9 15.169 9.23705 15.591 9.65901C16.0129 10.081 16.25 10.6533 16.25 11.25C16.25 11.8467 16.0129 12.419 15.591 12.841C15.169 13.2629 14.5967 13.5 14 13.5C13.4033 13.5 12.831 13.2629 12.409 12.841C11.9871 12.419 11.75 11.8467 11.75 11.25C11.75 10.6533 11.9871 10.081 12.409 9.65901C12.831 9.23705 13.4033 9 14 9ZM19.994 18.2H22.207C22.437 18.2 22.554 18.168 22.662 18.11C22.7693 18.051 22.8565 17.9611 22.912 17.852C22.969 17.742 23 17.62 23 17.384V17.277C23 15.72 21.25 15 19.5 15C19.248 15 18.996 15.015 18.749 15.045C19.478 15.714 20 16.644 20 17.846V17.98C20 18.055 19.998 18.128 19.994 18.2ZM21.25 11.8C21.25 10.806 20.466 10 19.5 10C18.533 10 17.75 10.806 17.75 11.8C17.75 12.794 18.533 13.6 19.5 13.6C20.466 13.6 21.25 12.794 21.25 11.8ZM8.006 18.2C8.00203 18.1267 8.00003 18.0534 8 17.98V17.846C8 16.644 8.522 15.714 9.251 15.046C9.00183 15.0154 8.75104 15.0001 8.5 15C6.75 15 5 15.72 5 17.277V17.384C5 17.62 5.03 17.741 5.088 17.852C5.14371 17.9608 5.2308 18.0503 5.338 18.109C5.446 18.169 5.564 18.2 5.793 18.2H8.006ZM10.25 11.8C10.25 10.806 9.466 10 8.5 10C7.534 10 6.75 10.806 6.75 11.8C6.75 12.794 7.534 13.6 8.5 13.6C9.466 13.6 10.25 12.794 10.25 11.8Z" fill="white"/>
</g>
<defs>
<linearGradient id="paint0_linear_11812_4095" x1="-14" y1="14" x2="14" y2="42" gradientUnits="userSpaceOnUse">
<stop stop-color="#226DFE"/>
<stop offset="1" stop-color="#226DFE"/>
</linearGradient>
<clipPath id="clip0_11812_4095">
<rect width="28" height="28" fill="white"/>
</clipPath>
</defs>
</svg>
