<svg width="28" height="28" viewBox="0 0 28 28" fill="none" xmlns="http://www.w3.org/2000/svg">
<g clip-path="url(#clip0_2769_9098)">
<mask id="mask0_2769_9098" style="mask-type:luminance" maskUnits="userSpaceOnUse" x="0" y="0" width="28" height="28">
<path d="M28 0H0V28H28V0Z" fill="white"/>
</mask>
<g mask="url(#mask0_2769_9098)">
<mask id="mask1_2769_9098" style="mask-type:luminance" maskUnits="userSpaceOnUse" x="0" y="0" width="28" height="28">
<path d="M28 0H0V28H28V0Z" fill="white"/>
</mask>
<g mask="url(#mask1_2769_9098)">
<path d="M0 14C0 6.268 6.268 0 14 0C21.732 0 28 6.268 28 14C28 21.732 21.732 28 14 28C6.268 28 0 21.732 0 14Z" fill="url(#paint0_linear_2769_9098)"/>
</g>
</g>
<path d="M19.0328 9.18892C18.196 9.99957 17.571 10.9988 17.571 11.971C17.571 12.3712 17.2512 12.6956 16.8568 12.6956C16.4623 12.6956 16.1425 12.3712 16.1425 11.971C16.1425 10.407 17.1065 9.0511 18.0463 8.14074C18.5288 7.67334 19.0393 7.28907 19.4897 7.01732C19.7147 6.8816 19.9342 6.76815 20.1358 6.68637C20.3196 6.61181 20.5534 6.5362 20.7854 6.5362C21.3398 6.5362 21.5302 7.0255 21.5697 7.15382C21.6235 7.32868 21.6329 7.51529 21.6336 7.65332C21.6352 7.94871 21.5939 8.31068 21.5465 8.63522C21.4978 8.96847 21.437 9.29826 21.389 9.54251C21.3763 9.60719 21.3644 9.66623 21.3538 9.71818C21.3638 9.74237 21.3742 9.76822 21.3852 9.79567C21.4615 9.98758 21.5599 10.2596 21.652 10.5886C21.8343 11.2396 22.0023 12.1493 21.9003 13.1169C21.7969 14.0981 21.4135 15.1462 20.4939 16.0138C19.8677 16.6047 19.0231 17.0832 17.9153 17.4112C18.2287 17.8285 18.4064 18.3151 18.508 18.8407C18.7917 20.3079 17.6402 21.4563 16.4141 21.6828L14.1319 22.1042L13.9997 22.1159L13.8716 22.1042L11.5894 21.6828C10.3633 21.4563 9.21182 20.3079 9.49544 18.8407C9.59705 18.3151 9.77474 17.8285 10.0882 17.4112C8.98034 17.0832 8.1358 16.6047 7.50958 16.0138C6.58995 15.1462 6.20655 14.0981 6.10316 13.1169C6.0012 12.1493 6.16914 11.2396 6.35145 10.5886C6.44358 10.2596 6.54198 9.98758 6.61832 9.79567C6.62923 9.76822 6.63972 9.74237 6.64969 9.71818C6.63906 9.66623 6.62716 9.60719 6.61445 9.54251C6.56644 9.29826 6.50569 8.96847 6.45699 8.63522C6.40956 8.31068 6.36831 7.94871 6.36984 7.65332C6.37056 7.51529 6.37995 7.32868 6.43377 7.15382C6.47327 7.0255 6.66368 6.5362 7.21809 6.5362C7.45009 6.5362 7.68387 6.61181 7.86765 6.68637C8.06925 6.76815 8.2888 6.8816 8.51376 7.01732C8.9642 7.28907 9.47471 7.67334 9.95722 8.14074C10.897 9.0511 11.861 10.407 11.861 11.971C11.861 12.3712 11.5412 12.6956 11.1467 12.6956C10.7522 12.6956 10.4324 12.3712 10.4324 11.971C10.4324 10.9988 9.8075 9.99957 8.97065 9.18892C8.59113 8.82127 8.19506 8.51956 7.85368 8.30605C7.85885 8.34424 7.86434 8.38316 7.87011 8.42269C7.91407 8.7235 7.96996 9.02777 8.01543 9.25907C8.03805 9.37413 8.05783 9.46985 8.07188 9.53643C8.0789 9.56969 8.08447 9.59562 8.08823 9.61297L8.09247 9.63239L8.09347 9.63698L8.0937 9.638C8.12961 9.79993 8.10965 9.96945 8.03715 10.1182L8.03364 10.1257C8.02991 10.1336 8.02366 10.1472 8.01529 10.1659C7.99854 10.2035 7.97342 10.2618 7.9431 10.338C7.8823 10.4908 7.80155 10.7136 7.72564 10.9847C7.57183 11.5339 7.44806 12.2456 7.52363 12.9628C7.59777 13.6663 7.86116 14.3664 8.48245 14.9526C9.11243 15.5469 10.1746 16.0845 11.9553 16.3252C12.285 16.3697 12.5407 16.6392 12.5721 16.9751C12.6035 17.311 12.4022 17.6244 12.0867 17.731C11.6708 17.8715 11.4256 18.046 11.2645 18.2391C11.1012 18.4348 10.9773 18.706 10.8973 19.1196C10.809 19.5766 11.1696 20.1322 11.8452 20.2569L14.0017 20.6552L16.1583 20.2569C16.8338 20.1322 17.1945 19.5766 17.1062 19.1196C17.0262 18.706 16.9023 18.4348 16.739 18.2391C16.5779 18.046 16.3327 17.8715 15.9168 17.731C15.6013 17.6244 15.4 17.311 15.4314 16.9751C15.4628 16.6392 15.7185 16.3697 16.0482 16.3252C17.8289 16.0845 18.891 15.5469 19.521 14.9526C20.1423 14.3664 20.4057 13.6663 20.4798 12.9628C20.5554 12.2456 20.4316 11.5339 20.2778 10.9847C20.2019 10.7136 20.1212 10.4908 20.0604 10.338C20.0301 10.2618 20.0049 10.2035 19.9882 10.1659C19.9798 10.1472 19.9736 10.1336 19.9698 10.1257L19.9663 10.1182C19.8938 9.96945 19.8739 9.79993 19.9098 9.638L19.911 9.63239L19.9152 9.61297C19.919 9.59562 19.9246 9.56969 19.9316 9.53643C19.9456 9.46985 19.9654 9.37413 19.988 9.25907C20.0335 9.02777 20.0894 8.7235 20.1334 8.42269C20.1391 8.38316 20.1446 8.34424 20.1498 8.30605C19.8084 8.51956 19.4123 8.82127 19.0328 9.18892Z" fill="white"/>
<path fill-rule="evenodd" clip-rule="evenodd" d="M11.2397 7.25804C11.4385 6.91235 11.8759 6.79558 12.2166 6.99723L12.8711 7.38454C13.3209 7.65072 13.7024 8.00454 13.9996 8.41762C14.2968 8.00454 14.6783 7.65072 15.1281 7.38454L15.7825 6.99723C16.1233 6.79558 16.5606 6.91235 16.7594 7.25804C16.9582 7.60373 16.8431 8.04743 16.5023 8.24909L15.8479 8.63639C15.1457 9.05195 14.7139 9.81462 14.7139 10.6394V11.2463C14.7139 11.6466 14.3941 11.971 13.9996 11.971C13.6051 11.971 13.2853 11.6466 13.2853 11.2463V10.6394C13.2853 9.81462 12.8535 9.05195 12.1513 8.63639L11.4968 8.24909C11.1561 8.04743 11.041 7.60373 11.2397 7.25804Z" fill="white"/>
<path d="M15.0711 5.81157C15.0711 6.41188 14.5914 6.89852 13.9996 6.89852C13.4079 6.89852 12.9282 6.41188 12.9282 5.81157C12.9282 5.21126 13.4079 4.72461 13.9996 4.72461C14.5914 4.72461 15.0711 5.21126 15.0711 5.81157Z" fill="white"/>
</g>
<defs>
<linearGradient id="paint0_linear_2769_9098" x1="-14" y1="14" x2="14" y2="42" gradientUnits="userSpaceOnUse">
<stop stop-color="#226DFE"/>
<stop offset="1" stop-color="#226DFE"/>
</linearGradient>
<clipPath id="clip0_2769_9098">
<rect width="28" height="28" fill="white"/>
</clipPath>
</defs>
</svg>
