<svg width="28" height="28" viewBox="0 0 28 28" fill="none" xmlns="http://www.w3.org/2000/svg">
<g clip-path="url(#clip0_11812_4098)">
<path d="M28 14C28 6.26801 21.732 0 14 0C6.26801 0 0 6.26801 0 14C0 21.732 6.26801 28 14 28C21.732 28 28 21.732 28 14Z" fill="url(#paint0_linear_11812_4098)"/>
<path fill-rule="evenodd" clip-rule="evenodd" d="M11.227 7C9.71 7 9.15 7.132 8.593 7.43C8.09746 7.69225 7.69225 8.09746 7.43 8.593C7.132 9.15 7 9.71 7 11.227V16.773C7 18.29 7.132 18.85 7.43 19.407C7.698 19.908 8.092 20.302 8.593 20.57C9.15 20.868 9.71 21 11.227 21H11.25V18.75C11.25 18.5511 11.329 18.3603 11.4697 18.2197C11.6103 18.079 11.8011 18 12 18C12.1989 18 12.3897 18.079 12.5303 18.2197C12.671 18.3603 12.75 18.5511 12.75 18.75V21H15.25V18.75C15.25 18.5511 15.329 18.3603 15.4697 18.2197C15.6103 18.079 15.8011 18 16 18C16.1989 18 16.3897 18.079 16.5303 18.2197C16.671 18.3603 16.75 18.5511 16.75 18.75V21H16.773C18.29 21 18.85 20.868 19.407 20.57C19.9025 20.3078 20.3078 19.9025 20.57 19.407C20.868 18.85 21 18.29 21 16.773V11.227C21 9.71 20.868 9.15 20.57 8.593C20.3078 8.09746 19.9025 7.69225 19.407 7.43C18.85 7.132 18.29 7 16.773 7H11.227ZM10 14.25C10 14.0511 10.079 13.8603 10.2197 13.7197C10.3603 13.579 10.5511 13.5 10.75 13.5H16.283C16.4819 13.5 16.6727 13.579 16.8133 13.7197C16.954 13.8603 17.033 14.0511 17.033 14.25C17.033 14.4489 16.954 14.6397 16.8133 14.7803C16.6727 14.921 16.4819 15 16.283 15H10.75C10.5511 15 10.3603 14.921 10.2197 14.7803C10.079 14.6397 10 14.4489 10 14.25ZM10.75 10.25C10.5511 10.25 10.3603 10.329 10.2197 10.4697C10.079 10.6103 10 10.8011 10 11C10 11.1989 10.079 11.3897 10.2197 11.5303C10.3603 11.671 10.5511 11.75 10.75 11.75H17.25C17.4489 11.75 17.6397 11.671 17.7803 11.5303C17.921 11.3897 18 11.1989 18 11C18 10.8011 17.921 10.6103 17.7803 10.4697C17.6397 10.329 17.4489 10.25 17.25 10.25H10.75Z" fill="white"/>
</g>
<defs>
<linearGradient id="paint0_linear_11812_4098" x1="-14" y1="14" x2="14" y2="42" gradientUnits="userSpaceOnUse">
<stop stop-color="#226DFE"/>
<stop offset="1" stop-color="#226DFE"/>
</linearGradient>
<clipPath id="clip0_11812_4098">
<rect width="28" height="28" fill="white"/>
</clipPath>
</defs>
</svg>
